Simulation
nRows=24
nColumns=15
endheader
time  TH_x TH_y TH_z SC_y  SC_z  SC_x  AC_y  AC_z  AC_x  GH_y  GH_z  GH_yy  EL_x  PS_y
1.55  0.000000  0.000000  0.000000  -37.37696224867504  5.962789402739504  11.199024814298449  60.94488281310684  19.09520510043987  -2.5657849000167787  21.691496842710027  53.30742452308795  -20.967002905562335  18.318296097901523  0.000000
1.581  0.000000  0.000000  0.000000  -37.47291179063206  6.055603297415758  11.113658708461532  60.973551237914364  19.411618840370817  -2.312992313824258  21.677263476902997  53.716732011418614  -21.18117013932481  18.268454986629774  0.000000
1.612  0.000000  0.000000  0.000000  -37.550917350295634  6.126415312435484  11.006309144101063  60.99213774657292  19.696417248574036  -2.092279463819945  21.67814097512579  54.04725117908902  -21.38725440089057  18.22377081050919  0.000000
1.643  0.000000  0.000000  0.000000  -37.61045716105834  6.174938608683892  10.874462592756448  61.00088863897807  19.951160670898606  -1.9031971376721286  21.693543042248567  54.29811907533164  -21.584716088627008  18.184168542266086  0.000000
1.674  0.000000  0.000000  0.000000  -37.651053557167664  6.201114173270389  10.7165474949009  60.999838145930866  20.178143754870344  -1.745778412671497  21.72354881487896  54.46829256380669  -21.77297650538823  18.14970331096343  0.000000
1.705  0.000000  0.000000  0.000000  -37.67238438642943  6.204316868756149  10.534035724818397  60.989261658988426  20.37690381196598  -1.6218906209411237  21.768377946070416  54.5579498933056  -21.951486470628684  18.120626838067686  0.000000
1.736  0.000000  0.000000  0.000000  -37.67491346814324  6.184057022936615  10.327875673979134  60.96999476532364  20.546806842709774  -1.5320685415194855  21.82753877866939  54.56770360549504  -22.11986554257903  18.097285191819363  0.000000
1.767  0.000000  0.000000  0.000000  -37.65957965037362  6.140401231080591  10.099296575769934  60.94317026544714  20.687032886583086  -1.476157140690063  21.900628035333142  54.4982959750495  -22.277971989204335  18.079488540812655  0.000000
1.798  0.000000  0.000000  0.000000  -37.62715203225274  6.07249122789828  9.847310620766752  60.91000961245121  20.80042392363643  -1.4528135388972916  21.986547447075175  54.350066375416056  -22.425554211881018  18.06714058912908  0.000000
1.829  0.000000  0.000000  0.000000  -37.57855092406746  5.980319707083024  9.571557768059918  60.870776559863124  20.889263064762854  -1.460730313614808  22.085582595137275  54.123358488843856  -22.56224143891221  18.06003726070989  0.000000
1.8599999999999999  0.000000  0.000000  0.000000  -37.5142515245975  5.864391053532439  9.276623377670193  60.82588758787149  20.94939310723811  -1.5012029004208474  22.197599669624665  53.818912591521745  -22.687556526386093  18.058605502635643  0.000000
1.891  0.000000  0.000000  0.000000  -37.43513062458662  5.725504415623491  8.964880972981916  60.776213918643464  20.97651705548564  -1.5736010297239913  22.32116136945147  53.43770787996979  -22.80105867004216  18.062745735252573  0.000000
1.922  0.000000  0.000000  0.000000  -37.34250265032375  5.565391980000166  8.634705738262696  60.72211473990194  20.97079489307669  -1.6736267184154952  22.454919756689037  52.979504210545464  -22.90231955492223  18.0719572780409  0.000000
1.953  0.000000  0.000000  0.000000  -37.237478337526895  5.3851612405669185  8.284229961229958  60.663759801402094  20.934651701216833  -1.7969986893166088  22.59904245282366  52.444356675317266  -22.99054286632108  18.08618589430938  0.000000
1.984  0.000000  0.000000  0.000000  -37.12137154692983  5.185740673891895  7.910748523107899  60.60215758617443  20.871704564552132  -1.9387103437280657  22.754407810413557  51.83297646507368  -23.06538303987002  18.105972601768002  0.000000
2.015  0.000000  0.000000  0.000000  -36.99537630508701  4.968173846015661  7.51257105176521  60.53832136864593  20.78406561429549  -2.0937910823779906  22.922556101429265  51.14667353759747  -23.12615838903276  18.132147142438964  0.000000
2.046  0.000000  0.000000  0.000000  -36.86117481418734  4.7338381765117665  7.087903943509551  60.47514973999768  20.673310271715714  -2.256284192948971  23.103791517602914  50.38636753752421  -23.172555729016857  18.165182908139517  0.000000
2.077  0.000000  0.000000  0.000000  -36.72190244193106  4.484232830807852  6.634747294602508  60.417552650325064  20.539978633977093  -2.4185012266774035  23.297532094099303  49.55323316194239  -23.204189966753194  18.20486936606863  0.000000
2.108  0.000000  0.000000  0.000000  -36.581976830214884  4.221255369080937  6.151164922539526  60.37268453948206  20.383201980166003  -2.5717535423537767  23.501257005150084  48.648784324394484  -23.221420049869884  18.250669158263836  0.000000
2.139  0.000000  0.000000  0.000000  -36.44552986633579  3.9473374925675806  5.637916782162093  60.346575295031826  20.19899184114366  -2.7082551100652643  23.711580844781  47.67497381231316  -23.22459704966738  18.301515757897988  0.000000
2.17  0.000000  0.000000  0.000000  -36.31395020396144  3.6651150020817287  5.097958008364793  60.3416728645421  19.98325324689751  -2.8237440224634662  23.924890992027766  46.633332167925126  -23.214353369811683  18.356463865882848  0.000000
2.201  0.000000  0.000000  0.000000  -36.18522534640843  3.3759369353608784  4.536501078615268  60.35422770908035  19.73329598804433  -2.918712572893224  24.13971470692054  45.52556834865545  -23.190709539303516  18.415199006775367  0.000000
2.232  0.000000  0.000000  0.000000  -36.05476387569878  3.080723739617585  3.958642496976203  60.376129330444826  19.44963249119151  -2.9969069462718845  24.356337127630518  44.35348734893218  -23.1537206420159  18.478173616764458  0.000000
2.263  0.000000  0.000000  0.000000  -35.91724645744547  2.7815742175852103  3.3725590374406518  60.39706999022592  19.130216063121537  -3.0635521287597567  24.576524809285903  43.119310687480116  -23.102695145889264  18.545803105215636  0.000000
